<svg width="234" height="126" fill="none" xmlns="http://www.w3.org/2000/svg"><g opacity=".6"><g opacity=".85" filter="url(#filter0_f)"><path d="M125.241 122h1.459l-.527-1.361-44.907-116L81.02 4H50.221l-.247.639-44.907 116L4.541 122h23.75l.246-.644L41.05 88.565h48.97l12.343 32.787.244.648h22.635zm102.001 0h1.563l-.654-1.419-22.432-48.658c6.078-1.294 10.758-3.737 13.918-8.544 3.333-5.07 4.863-12.609 4.863-23.75 0-16.918-3.98-26.025-11.435-30.76-3.682-2.34-8.119-3.546-13.121-4.176-4.999-.63-10.64-.693-16.758-.693h-55.942v118h22.582V73.212h33.545l20.155 48.174.257.614h23.459zM65.535 22.153L84.5 72.235H46.571l18.964-50.082zm135.703 17.135c0 4.645-.183 8.036-.734 10.535-.546 2.472-1.427 3.959-2.749 4.929-1.361.999-3.334 1.559-6.305 1.844-2.964.285-6.756.286-11.666.286h-29.958V20.33h29.448c4.868 0 8.668.002 11.668.307 3.003.306 5.046.906 6.485 1.987 1.406 1.058 2.368 2.681 2.974 5.348.612 2.69.837 6.337.837 11.317z" stroke="url(#paint0_radial)" stroke-opacity=".5" stroke-width="2"/></g><g opacity=".85" filter="url(#filter1_f)"><path d="M125.241 122h1.459l-.527-1.361-44.907-116L81.02 4H50.221l-.247.639-44.907 116L4.541 122h23.75l.246-.644L41.05 88.565h48.97l12.343 32.787.244.648h22.635zm102.001 0h1.563l-.654-1.419-22.432-48.658c6.078-1.294 10.758-3.737 13.918-8.544 3.333-5.07 4.863-12.609 4.863-23.75 0-16.918-3.98-26.025-11.435-30.76-3.682-2.34-8.119-3.546-13.121-4.176-4.999-.63-10.64-.693-16.758-.693h-55.942v118h22.582V73.212h33.545l20.155 48.174.257.614h23.459zM65.535 22.153L84.5 72.235H46.571l18.964-50.082zm135.703 17.135c0 4.645-.183 8.036-.734 10.535-.546 2.472-1.427 3.959-2.749 4.929-1.361.999-3.334 1.559-6.305 1.844-2.964.285-6.756.286-11.666.286h-29.958V20.33h29.448c4.868 0 8.668.002 11.668.307 3.003.306 5.046.906 6.485 1.987 1.406 1.058 2.368 2.681 2.974 5.348.612 2.69.837 6.337.837 11.317z" stroke="url(#paint1_radial)" stroke-opacity=".5" stroke-width="2"/></g><path d="M125.241 121.5h.729l-.263-.681-44.907-116-.123-.319H50.564l-.124.32L5.534 120.818l-.264.681h22.677l.123-.322 12.635-33.113h49.66l12.465 33.111.122.324h22.289zm102.001 0h.782l-.327-.709-22.696-49.23c6.306-1.245 11.051-3.64 14.218-8.457C222.47 58.16 224 50.744 224 39.63c0-16.86-3.967-25.743-11.203-30.339-3.596-2.283-7.951-3.475-12.915-4.101-4.964-.626-10.575-.689-16.696-.689h-55.442v117h21.582V72.712h34.378l20.284 48.481.128.307h23.126zM65.535 20.741l19.688 51.994H45.847l19.688-51.994zm136.203 18.547c0 4.647-.182 8.085-.746 10.642-.561 2.544-1.488 4.159-2.941 5.225-1.473 1.08-3.557 1.651-6.554 1.94-2.992.287-6.813.287-11.713.287h-30.458V19.83h29.948c4.858 0 8.688.001 11.718.31 3.033.309 5.187.92 6.735 2.085 1.532 1.152 2.54 2.9 3.162 5.636.625 2.749.849 6.443.849 11.428z" stroke="url(#paint2_radial)"/></g><defs><radialGradient id="paint0_radial" cx="0" cy="0" r="1" gradientUnits="userSpaceOnUse" gradientTransform="rotate(-149.222 130.217 29.242) scale(226.693 434.194)"><stop stop-color="#E34040"/><stop offset="1" stop-color="#E34040" stop-opacity=".37"/></radialGradient><radialGradient id="paint1_radial" cx="0" cy="0" r="1" gradientUnits="userSpaceOnUse" gradientTransform="rotate(-149.222 130.217 29.242) scale(226.693 434.194)"><stop stop-color="#E34040"/><stop offset="1" stop-color="#E34040" stop-opacity=".37"/></radialGradient><radialGradient id="paint2_radial" cx="0" cy="0" r="1" gradientUnits="userSpaceOnUse" gradientTransform="rotate(-149.222 130.217 29.242) scale(226.693 434.194)"><stop stop-color="#E34040"/><stop offset="1" stop-color="#E34040" stop-opacity=".37"/></radialGradient><filter id="filter0_f" x=".081" y="0" width="233.286" height="126" filterUnits="userSpaceOnUse" color-interpolation-filters="sRGB"><feFlood flood-opacity="0" result="BackgroundImageFix"/><feBlend in="SourceGraphic" in2="BackgroundImageFix" result="shape"/><feGaussianBlur stdDeviation="1.5" result="effect1_foregroundBlur"/></filter><filter id="filter1_f" x=".081" y="0" width="233.286" height="126" filterUnits="userSpaceOnUse" color-interpolation-filters="sRGB"><feFlood flood-opacity="0" result="BackgroundImageFix"/><feBlend in="SourceGraphic" in2="BackgroundImageFix" result="shape"/><feGaussianBlur stdDeviation="1.5" result="effect1_foregroundBlur"/></filter></defs></svg>