<svg width="252" height="128" fill="none" xmlns="http://www.w3.org/2000/svg"><g opacity=".6"><g opacity=".8" filter="url(#filter0_f)"><path d="M22.765 23.235V123H5V5h29.346l34.532 99.915.948 2.742.943-2.744L105.125 5h29.699v118h-18.295V23.235l-1.945-.324L80.227 123h-21.16L24.711 22.91l-1.946.325zM222.536 72.89L245.703 123h-21.418l-20.919-49.858-.258-.613h-38.194V123h-19.353V5h56c6.359 0 12.09.067 17.131.7 5.038.634 9.309 1.825 12.775 4.02 6.84 4.332 10.918 12.838 10.918 30.104 0 11.417-1.589 18.715-4.71 23.45-3.079 4.67-7.761 7.004-14.41 8.213l-1.271.23.542 1.173zm-57.622-14.184v1h33.17c5.03 0 9.062 0 12.244-.305 3.186-.306 5.686-.928 7.552-2.292 1.905-1.395 3.006-3.454 3.636-6.302.624-2.821.81-6.524.81-11.336 0-5.172-.23-9.139-.919-12.16-.693-3.043-1.876-5.227-3.849-6.707-1.94-1.455-4.511-2.124-7.745-2.453-3.227-.328-7.272-.328-12.257-.328h-32.642v40.883z" stroke="url(#paint0_radial)" stroke-opacity=".5" stroke-width="2"/></g><g opacity=".9" filter="url(#filter1_f)"><path d="M22.765 23.235V123H5V5h29.346l34.532 99.915.948 2.742.943-2.744L105.125 5h29.699v118h-18.295V23.235l-1.945-.324L80.227 123h-21.16L24.711 22.91l-1.946.325zM222.536 72.89L245.703 123h-21.418l-20.919-49.858-.258-.613h-38.194V123h-19.353V5h56c6.359 0 12.09.067 17.131.7 5.038.634 9.309 1.825 12.775 4.02 6.84 4.332 10.918 12.838 10.918 30.104 0 11.417-1.589 18.715-4.71 23.45-3.079 4.67-7.761 7.004-14.41 8.213l-1.271.23.542 1.173zm-57.622-14.184v1h33.17c5.03 0 9.062 0 12.244-.305 3.186-.306 5.686-.928 7.552-2.292 1.905-1.395 3.006-3.454 3.636-6.302.624-2.821.81-6.524.81-11.336 0-5.172-.23-9.139-.919-12.16-.693-3.043-1.876-5.227-3.849-6.707-1.94-1.455-4.511-2.124-7.745-2.453-3.227-.328-7.272-.328-12.257-.328h-32.642v40.883z" stroke="url(#paint1_radial)" stroke-opacity=".5" stroke-width="2"/></g><path d="M23.265 23.235V123.5H4.5V4.5h30.203L69.35 104.752l.474 1.37.471-1.371L104.77 4.5h30.555v119H116.03V23.235l-.973-.162L80.584 123.5H58.71L24.238 23.073l-.973.162zM222.99 72.68l23.495 50.82h-22.533l-21.047-50.164-.129-.307h-37.362V123.5h-20.353V4.5h56.5c6.356 0 12.117.067 17.193.705 5.076.638 9.428 1.842 12.981 4.092 7.06 4.472 11.15 13.202 11.15 30.527 0 11.444-1.589 18.865-4.793 23.724-3.183 4.828-8.016 7.209-14.738 8.43l-.635.116.271.586zm-57.576-13.974v.5h32.644c5.052 0 9.064 0 12.223-.303 3.16-.303 5.549-.914 7.303-2.198 1.775-1.298 2.83-3.23 3.444-6.006.611-2.763.798-6.418.798-11.228 0-5.167-.231-9.086-.906-12.048-.678-2.974-1.815-5.033-3.662-6.419-1.83-1.373-4.29-2.03-7.496-2.355-3.201-.326-7.226-.326-12.233-.326h-32.115v40.383z" stroke="url(#paint2_radial)"/></g><defs><radialGradient id="paint0_radial" cx="0" cy="0" r="1" gradientUnits="userSpaceOnUse" gradientTransform="matrix(-217.67549 -119.9998 221.03318 -400.94655 247.142 124)"><stop stop-color="#E34040"/><stop offset="1" stop-color="#E34040" stop-opacity=".37"/></radialGradient><radialGradient id="paint1_radial" cx="0" cy="0" r="1" gradientUnits="userSpaceOnUse" gradientTransform="matrix(-217.67549 -119.9998 221.03318 -400.94655 247.142 124)"><stop stop-color="#E34040"/><stop offset="1" stop-color="#E34040" stop-opacity=".37"/></radialGradient><radialGradient id="paint2_radial" cx="0" cy="0" r="1" gradientUnits="userSpaceOnUse" gradientTransform="matrix(-217.67549 -119.9998 221.03318 -400.94655 247.142 124)"><stop stop-color="#E34040"/><stop offset="1" stop-color="#E34040" stop-opacity=".37"/></radialGradient><filter id="filter0_f" x="0" y="0" width="251.267" height="128" filterUnits="userSpaceOnUse" color-interpolation-filters="sRGB"><feFlood flood-opacity="0" result="BackgroundImageFix"/><feBlend in="SourceGraphic" in2="BackgroundImageFix" result="shape"/><feGaussianBlur stdDeviation="2" result="effect1_foregroundBlur"/></filter><filter id="filter1_f" x="1" y="1" width="249.267" height="126" filterUnits="userSpaceOnUse" color-interpolation-filters="sRGB"><feFlood flood-opacity="0" result="BackgroundImageFix"/><feBlend in="SourceGraphic" in2="BackgroundImageFix" result="shape"/><feGaussianBlur stdDeviation="1.5" result="effect1_foregroundBlur"/></filter></defs></svg>