<svg width="231" height="126" fill="none" xmlns="http://www.w3.org/2000/svg"><g opacity=".6"><g filter="url(#filter0_f)"><path d="M98.958 4h20.223L77.497 122H46.275L4.415 4h20.402L61.12 107.625l.948 2.707.94-2.71L98.958 4zm104.19 67.892L226.433 122h-21.537L183.87 72.14l-.258-.61h-38.379V122h-19.461V4h56.29c6.391 0 12.151.067 17.219.7 5.065.634 9.359 1.825 12.844 4.021 6.876 4.333 10.973 12.838 10.973 30.102 0 11.418-1.597 18.715-4.733 23.448-3.096 4.67-7.803 7.006-14.488 8.216l-1.275.23.546 1.175zm-57.915-14.186v1h33.333c5.056 0 9.108 0 12.307-.305 3.2-.306 5.711-.927 7.585-2.291 1.915-1.393 3.022-3.453 3.655-6.302.627-2.822.814-6.525.814-11.337 0-5.172-.231-9.14-.923-12.16-.698-3.045-1.887-5.229-3.869-6.708-1.949-1.455-4.531-2.123-7.781-2.452-3.242-.328-7.308-.328-12.319-.328h-32.802v40.883z" stroke="url(#paint0_radial)" stroke-opacity=".5" stroke-width="2"/></g><path d="M98.958 4h20.223L77.497 122H46.275L4.415 4h20.402L61.12 107.625l.948 2.707.94-2.71L98.958 4zm104.19 67.892L226.433 122h-21.537L183.87 72.14l-.258-.61h-38.379V122h-19.461V4h56.29c6.391 0 12.151.067 17.219.7 5.065.634 9.359 1.825 12.844 4.021 6.876 4.333 10.973 12.838 10.973 30.102 0 11.418-1.597 18.715-4.733 23.448-3.096 4.67-7.803 7.006-14.488 8.216l-1.275.23.546 1.175zm-57.915-14.186v1h33.333c5.056 0 9.108 0 12.307-.305 3.2-.306 5.711-.927 7.585-2.291 1.915-1.393 3.022-3.453 3.655-6.302.627-2.822.814-6.525.814-11.337 0-5.172-.231-9.14-.923-12.16-.698-3.045-1.887-5.229-3.869-6.708-1.949-1.455-4.531-2.123-7.781-2.452-3.242-.328-7.308-.328-12.319-.328h-32.802v40.883z" stroke="url(#paint1_radial)" stroke-opacity=".5" stroke-width="2"/><path d="M98.603 3.5h21.285l-42.038 119H45.922L3.708 3.5H25.17l36.42 103.959.475 1.354.47-1.355L98.603 3.5zm104.999 68.181l23.614 50.819h-22.652l-21.155-50.165-.129-.306h-37.547V122.5h-20.461V3.5h56.79c6.388 0 12.178.067 17.281.705 5.101.638 9.477 1.843 13.048 4.093 7.096 4.472 11.207 13.202 11.207 30.526 0 11.443-1.597 18.864-4.817 23.723-3.199 4.828-8.058 7.21-14.815 8.432l-.637.115.273.587zm-57.869-13.975v.5h32.808c5.077 0 9.109 0 12.284-.303 3.176-.303 5.576-.914 7.339-2.197 1.783-1.298 2.844-3.23 3.461-6.007.614-2.763.802-6.418.802-11.228 0-5.167-.232-9.086-.911-12.049-.681-2.974-1.824-5.034-3.68-6.418-1.839-1.373-4.311-2.03-7.532-2.355-3.218-.326-7.262-.326-12.295-.326h-32.276v40.383z" stroke="url(#paint2_radial)"/></g><defs><radialGradient id="paint0_radial" cx="0" cy="0" r="1" gradientUnits="userSpaceOnUse" gradientTransform="rotate(-148.791 131.12 29.677) scale(231.588 447.139)"><stop stop-color="#E34040"/><stop offset="1" stop-color="#E34040" stop-opacity=".37"/></radialGradient><radialGradient id="paint1_radial" cx="0" cy="0" r="1" gradientUnits="userSpaceOnUse" gradientTransform="rotate(-148.791 131.12 29.677) scale(231.588 447.139)"><stop stop-color="#E34040"/><stop offset="1" stop-color="#E34040" stop-opacity=".37"/></radialGradient><radialGradient id="paint2_radial" cx="0" cy="0" r="1" gradientUnits="userSpaceOnUse" gradientTransform="rotate(-148.791 131.12 29.677) scale(231.588 447.139)"><stop stop-color="#E34040"/><stop offset="1" stop-color="#E34040" stop-opacity=".37"/></radialGradient><filter id="filter0_f" x="0" y="0" width="231" height="126" filterUnits="userSpaceOnUse" color-interpolation-filters="sRGB"><feFlood flood-opacity="0" result="BackgroundImageFix"/><feBlend in="SourceGraphic" in2="BackgroundImageFix" result="shape"/><feGaussianBlur stdDeviation="1.5" result="effect1_foregroundBlur"/></filter></defs></svg>