<svg width="105" height="111" fill="none" xmlns="http://www.w3.org/2000/svg"><g filter="url(#filter0_f)"><path d="M21.06 77.571h-3.9V34.41h3.9m0 43.161V34.41m0 43.161h13.161M21.061 34.41V21.166m50.205 16.185v21.581c0 7.848-6.336 18.638-16.573 18.638H34.221m37.045-40.219c-2.924-1.961-7.311-3.433-13.16-3.433H34.22m37.045 3.433c5.07 2.747 9.53 6.867 12.186 11.281M34.222 33.92V21.167m0 12.752v43.652m29.245-56.404c-.974-.981-4.68-3.434-7.799-3.434H34.221v3.434m29.246 0H34.221m29.246 0c6.825.98 13.161 3.923 19.676 7.847 2.703 1.962 8.986 7.455 12.495 13.734 4.387 7.847 5.362 15.695 5.362 21.58 0 5.886-1.95 15.205-4.874 20.11-2.925 4.905-6.337 8.829-10.237 12.262-3.9 3.433-10.723 6.867-14.623 8.338A31.154 31.154 0 0160.543 107H21.06V90.324m0 0H4V21.167h17.06m0 69.157h13.161m0 0h26.322c13.648 0 22.91-15.205 22.91-27.467 0-3.29.004-8.8 0-14.224M34.22 90.323v3.434h26.322c8.774 0 18.327-6.867 22.422-13.733 4.094-6.867 4.874-10.79 4.387-19.129-.201-3.433-1.539-8.338-3.9-12.262m0 0c-.007-8.324-.07-17.114-.487-22.562-.9-11.771-12.674-19.829-17.06-21.09C64.766 4.654 62.297 4 59.567 4H21.06v17.167" stroke="#087DEA"/></g><path d="M21.06 77.571h-3.9V34.41h3.9m0 43.161V34.41m0 43.161h13.161M21.061 34.41V21.166m50.205 16.185v21.581c0 7.848-6.336 18.638-16.573 18.638H34.221m37.045-40.219c-2.924-1.961-7.311-3.433-13.16-3.433H34.22m37.045 3.433c5.07 2.747 9.53 6.867 12.186 11.281M34.222 33.92V21.167m0 12.752v43.652m29.245-56.404c-.974-.981-4.68-3.434-7.799-3.434H34.221v3.434m29.246 0H34.221m29.246 0c6.825.98 13.161 3.923 19.676 7.847 2.703 1.962 8.986 7.455 12.495 13.734 4.387 7.847 5.362 15.695 5.362 21.58 0 5.886-1.95 15.205-4.874 20.11-2.925 4.905-6.337 8.829-10.237 12.262-3.9 3.433-10.723 6.867-14.623 8.338A31.154 31.154 0 0160.543 107H21.06V90.324m0 0H4V21.167h17.06m0 69.157h13.161m0 0h26.322c13.648 0 22.91-15.205 22.91-27.467 0-3.29.004-8.8 0-14.224M34.22 90.323v3.434h26.322c8.774 0 18.327-6.867 22.422-13.733 4.094-6.867 4.874-10.79 4.387-19.129-.201-3.433-1.539-8.338-3.9-12.262m0 0c-.007-8.324-.07-17.114-.487-22.562-.9-11.771-12.674-19.829-17.06-21.09C64.766 4.654 62.297 4 59.567 4H21.06v17.167" stroke="#087DEA"/><defs><filter id="filter0_f" x=".5" y=".5" width="104" height="110" filterUnits="userSpaceOnUse" color-interpolation-filters="sRGB"><feFlood flood-opacity="0" result="BackgroundImageFix"/><feBlend in="SourceGraphic" in2="BackgroundImageFix" result="shape"/><feGaussianBlur stdDeviation="1.5" result="effect1_foregroundBlur"/></filter></defs></svg>