<svg width="229" height="179" fill="none" xmlns="http://www.w3.org/2000/svg"><g opacity=".7"><g opacity=".6" filter="url(#filter0_f)"><path d="M26.171 148.457l.003.005c11.303 14.688 27.017 22.026 47.082 22.026 20.064 0 35.707-7.338 46.865-22.029 11.283-14.812 16.899-34.481 16.899-58.96 0-24.476-5.616-44.072-16.9-58.738C108.964 15.924 93.321 8.512 73.256 8.512c-20.067 0-35.782 7.413-47.083 22.249h0C15.034 45.427 9.49 65.023 9.49 89.5c0 24.477 5.543 44.145 16.68 58.957zM185.656 11.82h-.088l-.082.03-41.449 14.995-.438.158.126.447 9.381 33.298.133.47.473-.121 25.99-6.676V167.18h40.05V11.82h-34.096zm-112.4 119.298c-7.892 0-13.781-3.413-17.728-10.279-3.971-6.906-5.987-17.331-5.987-31.34 0-14.007 2.016-24.432 5.987-31.339 3.947-6.865 9.836-10.278 17.728-10.278 7.892 0 13.78 3.413 17.727 10.278 3.971 6.907 5.988 17.332 5.988 31.34s-2.017 24.433-5.988 31.339c-3.947 6.866-9.835 10.279-17.727 10.279z" stroke="#E34040"/></g><g opacity=".8" filter="url(#filter1_f)"><path d="M26.171 148.457l.003.005c11.303 14.688 27.017 22.026 47.082 22.026 20.064 0 35.707-7.338 46.865-22.029 11.283-14.812 16.899-34.481 16.899-58.96 0-24.476-5.616-44.072-16.9-58.738C108.964 15.924 93.321 8.512 73.256 8.512c-20.067 0-35.782 7.413-47.083 22.249h0C15.034 45.427 9.49 65.023 9.49 89.5c0 24.477 5.543 44.145 16.68 58.957zM185.656 11.82h-.088l-.082.03-41.449 14.995-.438.158.126.447 9.381 33.298.133.47.473-.121 25.99-6.676V167.18h40.05V11.82h-34.096zm-112.4 119.298c-7.892 0-13.781-3.413-17.728-10.279-3.971-6.906-5.987-17.331-5.987-31.34 0-14.007 2.016-24.432 5.987-31.339 3.947-6.865 9.836-10.278 17.728-10.278 7.892 0 13.78 3.413 17.727 10.278 3.971 6.907 5.988 17.332 5.988 31.34s-2.017 24.433-5.988 31.339c-3.947 6.866-9.835 10.279-17.727 10.279z" stroke="#E34040"/></g><path d="M26.171 148.457l.003.005c11.303 14.688 27.017 22.026 47.082 22.026 20.064 0 35.707-7.338 46.865-22.029 11.283-14.812 16.899-34.481 16.899-58.96 0-24.476-5.616-44.072-16.9-58.738C108.964 15.924 93.321 8.512 73.256 8.512c-20.067 0-35.782 7.413-47.083 22.249h0C15.034 45.427 9.49 65.023 9.49 89.5c0 24.477 5.543 44.145 16.68 58.957zM185.656 9.807h-.099l-.091.038-41.449 17.007-.412.17.12.428 9.381 33.298.133.47.473-.121 25.99-6.676v114.771h40.05V9.808h-34.096zm-112.4 121.311c-7.892 0-13.781-3.413-17.728-10.279-3.971-6.906-5.987-17.331-5.987-31.34 0-14.007 2.016-24.432 5.987-31.339 3.947-6.865 9.836-10.278 17.728-10.278 7.892 0 13.78 3.413 17.728 10.278 3.97 6.907 5.987 17.332 5.987 31.34s-2.017 24.433-5.987 31.339c-3.947 6.866-9.836 10.279-17.728 10.279z" stroke="url(#paint0_radial)"/></g><defs><filter id="filter0_f" x=".991" y=".012" width="227.261" height="178.976" filterUnits="userSpaceOnUse" color-interpolation-filters="sRGB"><feFlood flood-opacity="0" result="BackgroundImageFix"/><feBlend in="SourceGraphic" in2="BackgroundImageFix" result="shape"/><feGaussianBlur stdDeviation="4" result="effect1_foregroundBlur"/></filter><filter id="filter1_f" x="4.991" y="4.012" width="219.261" height="170.976" filterUnits="userSpaceOnUse" color-interpolation-filters="sRGB"><feFlood flood-opacity="0" result="BackgroundImageFix"/><feBlend in="SourceGraphic" in2="BackgroundImageFix" result="shape"/><feGaussianBlur stdDeviation="2" result="effect1_foregroundBlur"/></filter><radialGradient id="paint0_radial" cx="0" cy="0" r="1" gradientUnits="userSpaceOnUse" gradientTransform="rotate(41.984 -6.99 18.107) scale(335.255 437.014)"><stop stop-color="#E81B1B" stop-opacity="0"/><stop offset="1" stop-color="#E81B1B"/></radialGradient></defs></svg>