<svg width="249" height="171" fill="none" xmlns="http://www.w3.org/2000/svg"><g opacity=".7"><g opacity=".6" filter="url(#filter0_f)"><path d="M24.713 141.553l.003.004C35.57 155.525 50.66 162.5 69.924 162.5s34.286-6.975 45.001-20.944c10.835-14.085 16.228-32.786 16.228-56.056 0-23.268-5.392-41.9-16.228-55.846C104.211 15.546 89.189 8.5 69.925 8.5c-19.267 0-34.357 7.047-45.21 21.154h0C14.017 43.6 8.694 62.233 8.694 85.5c0 23.269 5.323 41.969 16.018 56.053zm111.98 17.303v.5h103.61v-37.259h-45.188l19.082-19.902c7.698-7.985 13.522-15.565 17.458-22.74 4.091-7.342 6.135-15.32 6.135-23.926 0-14.522-5.078-25.988-15.257-34.338C212.524 12.727 200.472 8.5 186.404 8.5c-11.259 0-21.542 2.889-30.837 8.669-9.31 5.788-16.354 14.256-21.136 25.377l-.178.414.393.22 32.249 18.025.481.269.221-.505c2.211-5.049 4.924-8.796 8.12-11.28 3.189-2.48 6.885-3.72 11.106-3.72 3.955 0 6.954 1.089 9.07 3.206l.005.006.006.005c2.261 2.13 3.402 4.926 3.402 8.439 0 3.091-1.072 6.278-3.264 9.57-2.213 3.184-5.753 7.423-10.631 12.724l-.003.003-48.578 51.344-.137.145v27.445zm-66.769-33.824c-7.57 0-13.216-3.242-17-9.759-3.809-6.559-5.744-16.461-5.744-29.773 0-13.312 1.935-23.214 5.743-29.773 3.785-6.517 9.43-9.758 17.001-9.758 7.571 0 13.217 3.241 17.001 9.758 3.808 6.559 5.744 16.461 5.744 29.773 0 13.312-1.936 23.214-5.744 29.773-3.784 6.517-9.43 9.759-17 9.759z" stroke="#E34040"/></g><g opacity=".8" filter="url(#filter1_f)"><path d="M24.713 141.553l.003.004C35.57 155.525 50.66 162.5 69.924 162.5s34.286-6.975 45.001-20.944c10.835-14.085 16.228-32.786 16.228-56.056 0-23.268-5.392-41.9-16.228-55.846C104.211 15.546 89.189 8.5 69.925 8.5c-19.267 0-34.357 7.047-45.21 21.154h0C14.017 43.6 8.694 62.233 8.694 85.5c0 23.269 5.323 41.969 16.018 56.053zm111.98 17.303v.5h103.61v-37.259h-45.188l19.082-19.902c7.698-7.985 13.522-15.565 17.458-22.74 4.091-7.342 6.135-15.32 6.135-23.926 0-14.522-5.078-25.988-15.257-34.338C212.524 12.727 200.472 8.5 186.404 8.5c-11.259 0-21.542 2.889-30.837 8.669-9.31 5.788-16.354 14.256-21.136 25.377l-.178.414.393.22 32.249 18.025.481.269.221-.505c2.211-5.049 4.924-8.796 8.12-11.28 3.189-2.48 6.885-3.72 11.106-3.72 3.955 0 6.954 1.089 9.07 3.206l.005.006.006.005c2.261 2.13 3.402 4.926 3.402 8.439 0 3.091-1.072 6.278-3.264 9.57-2.213 3.184-5.753 7.423-10.631 12.724l-.003.003-48.578 51.344-.137.145v27.445zm-66.769-33.824c-7.57 0-13.216-3.242-17-9.759-3.809-6.559-5.744-16.461-5.744-29.773 0-13.312 1.935-23.214 5.743-29.773 3.785-6.517 9.43-9.758 17.001-9.758 7.571 0 13.217 3.241 17.001 9.758 3.808 6.559 5.744 16.461 5.744 29.773 0 13.312-1.936 23.214-5.744 29.773-3.784 6.517-9.43 9.759-17 9.759z" stroke="#E34040"/></g><path d="M24.713 141.553l.003.004C35.57 155.525 50.66 162.5 69.924 162.5s34.286-6.975 45.001-20.944c10.835-14.085 16.228-32.786 16.228-56.056 0-23.268-5.392-41.9-16.228-55.846C104.211 15.546 89.189 8.5 69.925 8.5c-19.267 0-34.357 7.047-45.21 21.154h0C14.017 43.6 8.694 62.233 8.694 85.5c0 23.269 5.323 41.969 16.018 56.053zm111.98 17.303v.5h103.61v-37.259h-45.188l19.082-19.902c7.698-7.985 13.522-15.565 17.458-22.74 4.091-7.342 6.135-15.32 6.135-23.926 0-14.522-5.078-25.988-15.257-34.338C212.524 12.727 200.472 8.5 186.404 8.5c-11.259 0-21.542 2.889-30.837 8.669-9.31 5.788-16.354 14.256-21.136 25.377l-.178.414.393.22 32.249 18.025.481.269.221-.505c2.211-5.049 4.924-8.796 8.12-11.28 3.189-2.48 6.885-3.72 11.106-3.72 3.955 0 6.954 1.089 9.07 3.206l.005.006.006.005c2.261 2.13 3.402 4.926 3.402 8.439 0 3.091-1.072 6.278-3.264 9.57-2.213 3.184-5.753 7.423-10.631 12.724l-.003.003-48.578 51.344-.137.145v27.445zm-66.769-33.824c-7.57 0-13.216-3.242-17-9.759-3.809-6.559-5.744-16.461-5.744-29.773 0-13.312 1.935-23.214 5.743-29.773 3.785-6.517 9.43-9.758 17.001-9.758 7.571 0 13.217 3.241 17.001 9.758 3.808 6.559 5.744 16.461 5.744 29.773 0 13.312-1.936 23.214-5.744 29.773-3.784 6.517-9.43 9.759-17 9.759z" stroke="url(#paint0_radial)"/></g><defs><filter id="filter0_f" x=".196" y="0" width="248.607" height="171" filterUnits="userSpaceOnUse" color-interpolation-filters="sRGB"><feFlood flood-opacity="0" result="BackgroundImageFix"/><feBlend in="SourceGraphic" in2="BackgroundImageFix" result="shape"/><feGaussianBlur stdDeviation="4" result="effect1_foregroundBlur"/></filter><filter id="filter1_f" x="4.196" y="4" width="240.607" height="163" filterUnits="userSpaceOnUse" color-interpolation-filters="sRGB"><feFlood flood-opacity="0" result="BackgroundImageFix"/><feBlend in="SourceGraphic" in2="BackgroundImageFix" result="shape"/><feGaussianBlur stdDeviation="2" result="effect1_foregroundBlur"/></filter><radialGradient id="paint0_radial" cx="0" cy="0" r="1" gradientUnits="userSpaceOnUse" gradientTransform="matrix(274.62617 213.14936 -270.65538 348.71815 9.556 9.296)"><stop stop-color="#E81B1B" stop-opacity="0"/><stop offset="1" stop-color="#E81B1B"/></radialGradient></defs></svg>