<svg width="220" height="147" fill="none" xmlns="http://www.w3.org/2000/svg"><path d="M15.643 126.637l.003.005C25.91 139.886 40.18 146.5 58.395 146.5c18.214 0 32.42-6.614 42.552-19.86 10.245-13.354 15.343-31.083 15.343-53.14 0-22.055-5.097-39.72-15.343-52.941C90.817 7.181 76.611.5 58.395.5c-18.217 0-32.487 6.682-42.75 20.059h0C5.53 33.781.5 51.445.5 73.5c0 22.056 5.031 39.784 15.143 53.137zm152.431-88.192l-21.502 26.397-.234.287.207.308 13.656 20.26.149.22h7.786c4.941 0 8.629 1.175 11.144 3.447l.01.009.01.008c2.64 2.145 3.971 5.106 3.971 8.948 0 3.841-1.332 6.875-3.982 9.155h0l-.009.008c-2.515 2.272-6.203 3.446-11.144 3.446-4.797 0-8.708-1.186-11.769-3.522-3.063-2.338-5.322-5.862-6.752-10.621l-.181-.603-.546.312-30.874 17.679-.372.212.153.4c3.995 10.425 10.464 18.33 19.408 23.689l.003.001c9.056 5.347 19.371 8.015 30.93 8.015 14.482 0 26.672-4.069 36.537-12.231 9.9-8.19 14.827-19.865 14.827-34.947 0-9.636-2.736-17.893-8.224-24.744-5.333-6.658-12.311-11.404-20.918-14.241L213.055 32.3l.112-.138V3.48h-91.051v34.966h45.958zm-109.68 72.493c-7.144 0-12.471-3.067-16.043-9.235-3.596-6.21-5.425-15.589-5.425-28.203 0-12.614 1.83-21.993 5.425-28.203 3.572-6.168 8.899-9.235 16.044-9.235 7.145 0 12.472 3.067 16.044 9.235 3.595 6.21 5.424 15.589 5.424 28.203 0 12.614-1.829 21.993-5.424 28.203-3.572 6.168-8.9 9.235-16.044 9.235z" stroke="url(#paint0_radial)"/><defs><radialGradient id="paint0_radial" cx="0" cy="0" r="1" gradientUnits="userSpaceOnUse" gradientTransform="rotate(37.887 -1.195 2.594) scale(328.944 417.95)"><stop stop-color="#E81B1B" stop-opacity="0"/><stop offset="1" stop-color="#E81B1B"/></radialGradient></defs></svg>