<svg width="43" height="45" fill="none" xmlns="http://www.w3.org/2000/svg"><path d="M8.168 31.855H6.53V13.709h1.638m0 18.146V13.709m0 18.146h5.53m-5.53-18.146V8.142m21.094 6.804v9.073c0 3.3-2.662 7.836-6.963 7.836h-8.602m15.565-16.909c-1.229-.825-3.072-1.443-5.53-1.443H13.698m15.565 1.443c2.13 1.155 4.004 2.887 5.12 4.743m-20.685-6.186V8.142m0 5.36v18.352M25.985 8.143c-.41-.413-1.966-1.444-3.276-1.444h-9.012v1.444m12.288 0H13.697m12.288 0c2.867.412 5.53 1.65 8.267 3.299 1.136.824 3.775 3.134 5.25 5.773 1.843 3.3 2.253 6.599 2.253 9.073 0 2.475-.82 6.392-2.048 8.454a21.255 21.255 0 01-4.301 5.155c-1.638 1.444-4.506 2.887-6.144 3.506a13.088 13.088 0 01-4.506.824H8.168v-7.01m0 0H1V8.142h7.168m0 29.074h5.53m0 0h11.058c5.735 0 9.626-6.393 9.626-11.547 0-1.384.002-3.7 0-5.98M13.697 37.216v1.443h11.06c3.686 0 7.7-2.887 9.42-5.773 1.72-2.887 2.048-4.537 1.843-8.042-.084-1.444-.646-3.506-1.638-5.155m0 0c-.003-3.5-.03-7.195-.205-9.486-.378-4.948-5.325-8.336-7.168-8.866-.478-.138-1.515-.412-2.662-.412H8.167v7.217" stroke="#087DEA"/></svg>