<svg width="57" height="52" fill="none" xmlns="http://www.w3.org/2000/svg"><path d="M3.965 38.148a6.434 6.434 0 01-1.318-1.814 23.535 23.535 0 01-2.387-9.85 23.534 23.534 0 011.995-9.937 6.386 6.386 0 011.94-2.489 6.538 6.538 0 015.75-1.123c1.037.29 1.963.82 2.752 1.578a.72.72 0 01.113.9L9.964 20.01a.722.722 0 01-.599.341l-2.736.054a18.994 18.994 0 00.236 11.903l2.736-.055a.722.722 0 01.612.318l3.026 4.479a.722.722 0 01-.078.904 6.43 6.43 0 01-2.688 1.687c-.961.31-2.002.39-3.009.234a6.537 6.537 0 01-2.78-1.13 6.41 6.41 0 01-.72-.596zm7.294-22.971a4.998 4.998 0 00-4.052-.941 4.971 4.971 0 00-3.633 2.896 21.886 21.886 0 00.368 18.565 4.971 4.971 0 003.744 2.751 4.998 4.998 0 004.012-1.101l-2.461-3.644-2.858.057a.722.722 0 01-.688-.463 20.431 20.431 0 01-.274-13.835.722.722 0 01.67-.49l2.857-.057 2.315-3.738zm6.898 8.473h1.485v-.45c0-1.2.99-1.845 1.965-1.845.975 0 1.95.645 1.95 1.845 0 .975-.54 1.44-1.05 1.95-1.8 1.8-4.5 3.075-4.5 5.1V31h6.9v-1.485h-5.025c0-.84 1.875-1.665 3.675-3.465.63-.63 1.5-1.5 1.5-2.85 0-2.1-1.65-3.3-3.45-3.3-1.8 0-3.45 1.35-3.45 3.3v.45zm7.343 4.5h4.95V31h1.5v-2.85h1.2v-1.425h-1.2V20.05H30s-1.875 2.85-4.5 6.675v1.425zm1.68-1.425c1.2-1.71 2.4-3.495 3.27-4.785v4.785h-3.27zM41.097 19.6h-1.05l-6.6 12h1.05l6.6-12zm7.343.45h-7.2v1.485h5.595c-.615 1.335-2.28 4.98-3.72 9.165v.3h1.5c1.8-5.55 3.825-9.465 3.825-9.465V20.05z" fill="#DCE4E9"/><path d="M6 11V1h50v50H6v-9" stroke="#DCE4E9"/></svg>